<svg width="290" height="228" viewBox="0 0 290 228" fill="none" xmlns="http://www.w3.org/2000/svg">
<g clip-path="url(#clip0_3090_2801)">
<path fill-rule="evenodd" clip-rule="evenodd" d="M229.795 78.2905L254.597 85.2166L230.361 88.3648L202.44 99.2599L229.795 78.2905Z" stroke="#171B33" stroke-width="2.88504" stroke-linecap="round" stroke-linejoin="round"/>
<path fill-rule="evenodd" clip-rule="evenodd" d="M80.9512 142.697L103.739 146.177L107.919 160.184L99.0665 156.734L80.9512 142.697Z" stroke="#171B33" stroke-width="2.88504" stroke-linecap="round"/>
<path fill-rule="evenodd" clip-rule="evenodd" d="M101.962 113.299L80.9556 142.87L56.6827 128.482L101.962 113.299Z" stroke="#171B33" stroke-width="2.88504" stroke-linecap="round" stroke-linejoin="round"/>
<path fill-rule="evenodd" clip-rule="evenodd" d="M62.6487 91.2473L93.2828 91.3752L50.8855 126.228L27.8898 104.465L62.6487 91.2473Z" stroke="#171B33" stroke-width="2.88504" stroke-linecap="round" stroke-linejoin="round"/>
<path fill-rule="evenodd" clip-rule="evenodd" d="M145.465 92.0316L101.961 113.297L56.7579 128.528L50.7892 126.263L93.2825 91.3738L145.465 92.0316Z" stroke="#171B33" stroke-width="2.88504" stroke-linecap="round" stroke-linejoin="round"/>
<path fill-rule="evenodd" clip-rule="evenodd" d="M94.2167 63.1523L93.2834 91.3757L62.6267 91.2156L94.2167 63.1523Z" stroke="#171B33" stroke-width="2.88504" stroke-linecap="round" stroke-linejoin="round"/>
<path fill-rule="evenodd" clip-rule="evenodd" d="M94.2165 63.151L62.6266 91.2144L64.3478 68.0611L94.2165 63.151Z" stroke="#171B33" stroke-width="2.88504" stroke-linecap="round" stroke-linejoin="round"/>
<path fill-rule="evenodd" clip-rule="evenodd" d="M81.0176 44.8828L102.282 53.9636L122.822 70.5602L94.2155 63.1521L81.0176 44.8828Z" stroke="#171B33" stroke-width="2.88504" stroke-linecap="round" stroke-linejoin="round"/>
<path fill-rule="evenodd" clip-rule="evenodd" d="M81.0174 44.8832L94.2153 63.1525L57.0117 38.9526L81.0174 44.8832Z" stroke="#171B33" stroke-width="2.88504" stroke-linecap="round" stroke-linejoin="round"/>
<path fill-rule="evenodd" clip-rule="evenodd" d="M64.3466 68.0626L57.0117 38.9526L94.2153 63.1525L64.3466 68.0626Z" stroke="#171B33" stroke-width="2.88504" stroke-linecap="round" stroke-linejoin="round"/>
<path fill-rule="evenodd" clip-rule="evenodd" d="M122.822 70.5602L93.2815 91.3755L94.2148 63.1521L122.822 70.5602Z" stroke="#171B33" stroke-width="2.88504" stroke-linecap="round" stroke-linejoin="round"/>
<path fill-rule="evenodd" clip-rule="evenodd" d="M122.822 70.5609L157.5 76.7131L145.464 92.0339L93.2817 91.3761L122.822 70.5609Z" stroke="#171B33" stroke-width="2.88504" stroke-linecap="round" stroke-linejoin="round"/>
<path fill-rule="evenodd" clip-rule="evenodd" d="M157.5 76.712L207.579 64.232L176.663 96.063L145.464 92.0329L157.5 76.712Z" stroke="#171B33" stroke-width="2.88504" stroke-linecap="round" stroke-linejoin="round"/>
<path fill-rule="evenodd" clip-rule="evenodd" d="M207.58 64.2319L245.308 62.5793L234.967 72.9336L218.861 71.51L207.58 64.2319Z" stroke="#171B33" stroke-width="2.88504" stroke-linecap="round" stroke-linejoin="round"/>
<path fill-rule="evenodd" clip-rule="evenodd" d="M157.5 76.7104L122.822 70.5581L188.478 55.6129L157.5 76.7104Z" stroke="#171B33" stroke-width="2.88504" stroke-linecap="round" stroke-linejoin="round"/>
<path fill-rule="evenodd" clip-rule="evenodd" d="M188.385 55.5946L217.892 55.1308L207.581 64.232L157.502 76.712L188.385 55.5946Z" stroke="#171B33" stroke-width="2.88504" stroke-linecap="round" stroke-linejoin="round"/>
<path fill-rule="evenodd" clip-rule="evenodd" d="M245.186 54.8816L257.088 54.8748L265.914 59.1263L245.308 62.5789L245.186 54.8816Z" stroke="#171B33" stroke-width="2.88504" stroke-linecap="round" stroke-linejoin="round"/>
<path fill-rule="evenodd" clip-rule="evenodd" d="M254.427 85.2621L229.589 78.2304L245.307 62.579L254.427 85.2621Z" stroke="#171B33" stroke-width="2.88504" stroke-linecap="round" stroke-linejoin="round"/>
<path fill-rule="evenodd" clip-rule="evenodd" d="M217.89 55.1307L245.186 54.882L245.307 62.5793L207.579 64.232L217.89 55.1307Z" stroke="#171B33" stroke-width="2.88504" stroke-linecap="round" stroke-linejoin="round"/>
<path fill-rule="evenodd" clip-rule="evenodd" d="M254.616 85.2273C254.616 85.2273 247.718 68.4315 245.307 62.5791C250.736 61.646 265.913 59.1265 265.913 59.1265L254.616 85.2273Z" stroke="#171B33" stroke-width="2.88504" stroke-linecap="round" stroke-linejoin="round"/>
<path fill-rule="evenodd" clip-rule="evenodd" d="M229.588 78.2308L218.842 71.4155L234.966 72.9337L229.588 78.2308Z" fill="#323232" stroke="#171B33" stroke-width="2.88504" stroke-linecap="round" stroke-linejoin="round"/>
<path fill-rule="evenodd" clip-rule="evenodd" d="M213.039 114.479L207.396 107.763L217.821 106.849L213.039 114.479Z" fill="#171B33"/>
<path fill-rule="evenodd" clip-rule="evenodd" d="M218.361 120.211L212.056 114.451L224.658 110.28L218.361 120.211Z" fill="#171B33"/>
<path fill-rule="evenodd" clip-rule="evenodd" d="M227.427 123.766L218.306 119.306L232.054 112.946L227.427 123.766Z" fill="#171B33"/>
<path fill-rule="evenodd" clip-rule="evenodd" d="M236.278 128.114L226.704 123.536L240.213 114.794L236.278 128.114Z" fill="#171B33"/>
<path fill-rule="evenodd" clip-rule="evenodd" d="M226.841 99.635L225.189 91.6599L235.518 88.0264L226.841 99.635Z" fill="#171B33"/>
<path fill-rule="evenodd" clip-rule="evenodd" d="M219.722 100.272L216.677 94.1953L226.664 91.065L219.722 100.272Z" fill="#171B33"/>
<path fill-rule="evenodd" clip-rule="evenodd" d="M235.173 99.3782L233.738 88.603L243.708 87.1668L235.173 99.3782Z" fill="#171B33"/>
<path fill-rule="evenodd" clip-rule="evenodd" d="M243.452 100.915L242.732 88.0523L255.959 85.9104L243.452 100.915Z" fill="#171B33"/>
<path fill-rule="evenodd" clip-rule="evenodd" d="M202.611 99.3601L176.759 96.0825L207.581 64.2317L202.611 99.3601Z" stroke="#171B33" stroke-width="2.88504" stroke-linecap="round" stroke-linejoin="round"/>
<path fill-rule="evenodd" clip-rule="evenodd" d="M202.59 99.4539L207.58 64.2319L229.589 78.2306L202.59 99.4539Z" stroke="#171B33" stroke-width="2.88504" stroke-linecap="round" stroke-linejoin="round"/>
<path fill-rule="evenodd" clip-rule="evenodd" d="M184.14 112.121L202.609 99.3595L206.727 108.601L184.14 112.121Z" stroke="#171B33" stroke-width="2.88504" stroke-linecap="round" stroke-linejoin="round"/>
<path fill-rule="evenodd" clip-rule="evenodd" d="M202.61 99.3603L184.14 112.122L145.465 92.0327L202.61 99.3603Z" stroke="#171B33" stroke-width="2.88504" stroke-linecap="round" stroke-linejoin="round"/>
<path fill-rule="evenodd" clip-rule="evenodd" d="M184.14 112.122L162.653 128.86L145.465 92.0327L184.14 112.122Z" stroke="#171B33" stroke-width="2.88504" stroke-linecap="round" stroke-linejoin="round"/>
<path fill-rule="evenodd" clip-rule="evenodd" d="M216.494 119.939L235.025 127.549L228.382 137.436L203.432 128.248L216.494 119.939Z" stroke="#171B33" stroke-width="2.88504" stroke-linecap="round" stroke-linejoin="round"/>
<path fill-rule="evenodd" clip-rule="evenodd" d="M203.495 128.269L162.651 128.861L184.138 112.123L206.726 108.603L216.586 119.961L203.495 128.269Z" stroke="#171B33" stroke-width="2.88504" stroke-linecap="round" stroke-linejoin="round"/>
<path fill-rule="evenodd" clip-rule="evenodd" d="M141.885 185.386L113.985 210.486L136.022 176.95L141.885 185.386Z" stroke="#171B33" stroke-width="2.88504" stroke-linecap="round" stroke-linejoin="round"/>
<path fill-rule="evenodd" clip-rule="evenodd" d="M113.985 210.486L115.772 186.085L136.022 176.95L113.985 210.486Z" stroke="#171B33" stroke-width="2.88504" stroke-linecap="round" stroke-linejoin="round"/>
<path fill-rule="evenodd" clip-rule="evenodd" d="M141.885 185.388L136.021 176.952L154.398 161.415L141.885 185.388Z" stroke="#171B33" stroke-width="2.88504" stroke-linecap="round" stroke-linejoin="round"/>
<path fill-rule="evenodd" clip-rule="evenodd" d="M136.022 176.952L115.771 186.087L128.518 129.807L136.022 176.952Z" stroke="#171B33" stroke-width="2.88504" stroke-linecap="round" stroke-linejoin="round"/>
<path fill-rule="evenodd" clip-rule="evenodd" d="M136.021 176.952L132.286 153.531L154.397 161.416L136.021 176.952Z" stroke="#171B33" stroke-width="2.88504" stroke-linecap="round" stroke-linejoin="round"/>
<path fill-rule="evenodd" clip-rule="evenodd" d="M115.771 186.087L103.884 146.442L128.518 129.807L115.771 186.087Z" stroke="#171B33" stroke-width="2.88504" stroke-linecap="round" stroke-linejoin="round"/>
<path fill-rule="evenodd" clip-rule="evenodd" d="M128.519 129.807L101.961 113.297L145.465 92.0325L128.519 129.807Z" stroke="#171B33" stroke-width="2.88504" stroke-linecap="round" stroke-linejoin="round"/>
<path fill-rule="evenodd" clip-rule="evenodd" d="M184.757 148.251L154.854 156.99L156.029 146.915L162.652 128.861L203.496 128.269L184.757 148.251Z" stroke="#171B33" stroke-width="2.88504" stroke-linecap="round" stroke-linejoin="round"/>
<path fill-rule="evenodd" clip-rule="evenodd" d="M128.519 129.808L80.9375 142.776L101.961 113.299L128.519 129.808Z" stroke="#171B33" stroke-width="2.88504" stroke-linecap="round" stroke-linejoin="round"/>
<path fill-rule="evenodd" clip-rule="evenodd" d="M184.757 148.251L203.496 128.269L228.496 137.362L184.757 148.251Z" stroke="#171B33" stroke-width="2.88504" stroke-linecap="round" stroke-linejoin="round"/>
<path fill-rule="evenodd" clip-rule="evenodd" d="M128.517 129.807L155.988 147.103L154.396 161.416L132.285 153.531L128.517 129.807Z" stroke="#171B33" stroke-width="2.88504" stroke-linecap="round" stroke-linejoin="round"/>
<path fill-rule="evenodd" clip-rule="evenodd" d="M145.465 92.0329L162.652 128.861L155.99 147.103L128.518 129.807L145.465 92.0329Z" stroke="#171B33" stroke-width="2.88504" stroke-linecap="round" stroke-linejoin="round"/>
<mask id="mask0_3090_2801" style="mask-type:alpha" maskUnits="userSpaceOnUse" x="-20" y="59" width="240" height="136">
<path d="M61.3053 90.2681L62.8796 68.3639L63.3734 68.1259L118.961 85.527L190.001 148.432L185.088 149.634L156.285 158.088L155.631 162.218L144.707 183.015C150.303 186.919 161.634 194.536 163.316 194.538C165.419 194.54 201.842 191.328 202.905 191.523C203.755 191.679 214.349 164.991 219.539 151.627L211.969 119.14C178.76 99.7046 111.562 60.6361 108.443 59.8436C104.543 58.8529 49.7573 60.8631 41.5301 62.384C33.3029 63.9048 -16.7524 79.0744 -18.8969 82.5514C-21.0414 86.0285 -11.0067 105.396 -10.5414 107.119C-10.0762 108.842 41.191 153.398 42.4533 154.143C43.4631 154.738 86.415 161.648 108.547 167.01L101.655 144.275L30.2752 102.019L61.3053 90.2681Z" fill="#C4C4C4"/>
</mask>
<g mask="url(#mask0_3090_2801)">
<path fill-rule="evenodd" clip-rule="evenodd" d="M113.121 107.814C167.611 133.213 201.477 163.358 187.071 171.904C174.466 179.38 131.877 167.698 92.6995 149.436C53.5091 131.167 17.464 106.19 15.5239 91.9389C13.3076 75.6586 58.5872 82.3944 113.121 107.814Z" stroke="#27F09E" stroke-width="13.8347" stroke-linecap="round" stroke-linejoin="round"/>
</g>
</g>
<defs>
<clipPath id="clip0_3090_2801">
<rect width="261" height="182.238" fill="white" transform="translate(0.00976562 47.811) rotate(-10.4731)"/>
</clipPath>
</defs>
</svg>
